<?xml version="1.0" encoding="UTF-8"?>
<svg version="1.1" xmlns="http://www.w3.org/2000/svg" width="1024" height="1024">
<path d="M0 0 C337.92 0 675.84 0 1024 0 C1024 337.92 1024 675.84 1024 1024 C686.08 1024 348.16 1024 0 1024 C0 686.08 0 348.16 0 0 Z " fill="#E8E1EC" transform="translate(0,0)"/>
<path d="M0 0 C10.56 0 21.12 0 32 0 C35.25919102 7.82205845 38.45715639 15.63635807 41.50390625 23.5390625 C41.90906967 24.5859726 42.31423309 25.63288269 42.73167419 26.71151733 C44.0100712 30.01545107 45.28640623 33.32017607 46.5625 36.625 C47.84251018 39.93682993 49.12297343 43.24848359 50.40403748 46.55990601 C51.1961182 48.60767441 51.98755427 50.65569234 52.7782135 52.70401001 C53.84782709 55.47104453 54.92203169 58.23621016 56 61 C56.37156219 61.95332214 56.74312439 62.90664429 57.12594604 63.88885498 C57.48391266 64.79742249 57.84187927 65.70598999 58.21069336 66.64208984 C58.53089951 67.45688812 58.85110565 68.2716864 59.18101501 69.11117554 C59.85114025 70.97362491 59.85114025 70.97362491 61 72 C70.37149478 48.0146292 79.71699421 24.01977747 89 0 C99.89 0 110.78 0 122 0 C122.56267578 6.496875 122.56267578 6.496875 123.13671875 13.125 C123.58523152 18.29801708 124.03409923 23.4710033 124.48305511 28.64398193 C124.68663436 30.9900244 124.89010566 33.33607621 125.09356689 35.68212891 C126.54509082 52.41500208 128.00512374 69.14698535 129.51171875 85.875 C129.62845444 87.17276367 129.74519012 88.47052734 129.86546326 89.80761719 C130.41579331 95.92021957 130.96899022 102.03254523 131.52612305 108.14453125 C131.72320553 110.32551532 131.92023048 112.50650459 132.1171875 114.6875 C132.20751755 115.6676709 132.2978476 116.6478418 132.39091492 117.65771484 C132.47186905 118.55828613 132.55282318 119.45885742 132.63623047 120.38671875 C132.74232132 121.55013794 132.74232132 121.55013794 132.85055542 122.73706055 C133.01012325 125.15328961 133 127.57850773 133 130 C123.1 130 113.2 130 103 130 C102.823479 127.80432373 102.64695801 125.60864746 102.46508789 123.34643555 C101.88178551 116.09780565 101.29436296 108.84951393 100.7049036 101.60138226 C100.34758797 97.20617344 99.9916677 92.81086085 99.63891602 88.4152832 C99.29854014 84.1745581 98.95452553 79.93414258 98.60796928 75.69391823 C98.47629168 74.07488339 98.34593305 72.45574073 98.21690559 70.83649254 C98.03618023 68.57127943 97.85079976 66.30649255 97.66430664 64.04174805 C97.50775352 62.10648506 97.50775352 62.10648506 97.34803772 60.13212585 C97.10788709 56.97445832 97.10788709 56.97445832 96 54 C95.74801346 54.73312408 95.49602692 55.46624817 95.23640442 56.22158813 C92.84006229 63.19296748 90.44290747 70.16406663 88.04488087 77.13486671 C86.81260726 80.71704039 85.5806281 84.29931472 84.34936523 87.88183594 C83.15704379 91.35101436 81.96389231 94.81990635 80.77020836 98.28861618 C80.31910422 99.59992051 79.8682796 100.91132104 79.41776466 102.22282791 C76.34311681 111.17270999 73.19673981 120.09318695 70 129 C64.06 129 58.12 129 52 129 C49.03572562 121.7487687 46.35337171 114.44431688 43.8125 107.03515625 C43.23592651 105.36422157 43.23592651 105.36422157 42.64770508 103.65953064 C41.42949623 100.12797721 40.21456169 96.59530922 39 93.0625 C37.78490254 89.53344904 36.5690875 86.00464789 35.35229492 82.47618103 C34.59874862 80.29049597 33.84623748 78.10445364 33.0949707 75.91798401 C31.05746332 70.00213759 28.95170691 64.12255718 26.7277832 58.27391052 C26 56 26 56 26 53 C25.34 53 24.68 53 24 53 C23.96261719 54.14726563 23.92523438 55.29453125 23.88671875 56.4765625 C23.35686724 70.72064117 22.27888008 84.90353824 21.10424805 99.10595703 C20.25692385 109.39921913 19.57140019 119.68732535 19 130 C9.1 130 -0.8 130 -11 130 C-11 117.62603878 -11 117.62603878 -10.51269531 112.34667969 C-10.40534561 111.15624054 -10.29799591 109.96580139 -10.18739319 108.73928833 C-10.06883469 107.47954193 -9.95027618 106.21979553 -9.828125 104.921875 C-9.70395413 103.5624511 -9.58026347 102.20298327 -9.45701599 100.84347534 C-9.19532715 97.96629153 -8.93073569 95.0893968 -8.66366577 92.21270752 C-8.03532743 85.4441916 -7.42056584 78.67443597 -6.80455589 71.90478897 C-6.59760758 69.63227803 -6.39004603 67.35982362 -6.18244934 65.08737183 C-5.3381822 55.82910906 -4.5239491 46.56881118 -3.74609375 37.3046875 C-3.60740372 35.65333801 -3.60740372 35.65333801 -3.46591187 33.96862793 C-3.04145822 28.89709143 -2.62189719 23.82517882 -2.20605469 18.75292969 C-2.05798465 16.9733038 -1.90987525 15.19368119 -1.76171875 13.4140625 C-1.6984288 12.62450165 -1.63513885 11.8349408 -1.56993103 11.02145386 C-1.25430325 7.25204297 -0.74476908 3.72384542 0 0 Z " fill="#020102" transform="translate(157,503)"/>
<path d="M0 0 C9.9 0 19.8 0 30 0 C36.53764942 6.60719889 36.53764942 6.60719889 37.828125 10.09765625 C40.36482224 16.15684645 44.01761606 21.40898393 47.625 26.875 C49.00775492 29.03269467 50.38660732 31.19289482 51.76171875 33.35546875 C55.98016461 39.97051489 60.20779195 46.57965094 64.4375 53.1875 C65.06285645 54.16509277 65.68821289 55.14268555 66.33251953 56.14990234 C71.21054957 63.77383482 76.10560035 71.38648943 81 79 C81.33 52.93 81.66 26.86 82 0 C91.57 0 101.14 0 111 0 C111 42.9 111 85.8 111 130 C101.43 130 91.86 130 82 130 C77.33614019 123.58719276 72.9269705 117.51192341 68.9375 110.75 C64.67094548 103.64794703 60.23273762 96.6767996 55.6875 89.75 C50.4887157 81.82467393 45.33606776 73.873214 40.25 65.875 C39.66565186 64.95686523 39.08130371 64.03873047 38.47924805 63.09277344 C35.93603324 59.08710671 33.44184042 55.06973404 31 51 C30.67 77.07 30.34 103.14 30 130 C20.1 130 10.2 130 0 130 C0 87.1 0 44.2 0 0 Z " fill="#010101" transform="translate(836,503)"/>
<path d="M0 0 C9.57 0 19.14 0 29 0 C30.18851562 2.98289062 31.37703125 5.96578125 32.6015625 9.0390625 C34.27498934 13.23479534 35.94982194 17.42996606 37.625 21.625 C38.2871048 23.28317749 38.2871048 23.28317749 38.96258545 24.97485352 C44.22387519 38.14402548 49.5149164 51.30038465 54.875 64.4296875 C55.35730072 65.61116364 55.83960144 66.79263977 56.33651733 68.00991821 C58.6567528 73.69031284 60.98131767 79.36889823 63.31103516 85.04541016 C69.4182268 99.95444773 75.2570429 114.94664745 81 130 C70.44 130 59.88 130 49 130 C40 108.4 40 108.4 40 104 C23.17 104 6.34 104 -11 104 C-11.33 105.65 -11.66 107.3 -12 109 C-12.57990757 110.70666146 -13.19783459 112.40074664 -13.84765625 114.08203125 C-14.17000244 114.9222583 -14.49234863 115.76248535 -14.82446289 116.62817383 C-15.23301514 117.67900146 -15.64156738 118.7298291 -16.0625 119.8125 C-17.361875 123.174375 -18.66125 126.53625 -20 130 C-30.56 130 -41.12 130 -52 130 C-46.42085311 114.81450513 -40.38740769 99.81208114 -34.37004089 84.79653168 C-33.49360921 82.60904925 -32.61786722 80.42129187 -31.74230957 78.23345947 C-24.17240551 59.32011826 -16.55472061 40.4286447 -8.734375 21.6171875 C-5.75231969 14.43904711 -2.87502743 7.22159257 0 0 Z " fill="#010101" transform="translate(420,503)"/>
<path d="M0 0 C9.9 0 19.8 0 30 0 C30.0093457 2.5778833 30.01869141 5.1557666 30.02832031 7.81176758 C30.06219788 16.36140187 30.11780646 24.91079753 30.18390274 33.46024036 C30.22328926 38.64009112 30.25552092 43.8197741 30.27099609 48.99975586 C30.28622093 54.00556508 30.32076931 59.01091281 30.36830902 64.01651573 C30.38306293 65.91927754 30.39103755 67.82210526 30.39188385 69.72492409 C29.87163279 85.83655751 29.87163279 85.83655751 36.69268799 99.80427551 C41.60691656 103.84483472 47.48230344 103.59757494 53.57421875 103.35546875 C58.00456507 102.89576349 62.13479328 102.32465893 66 100 C67.55849551 97.64653258 67.55849551 97.64653258 68 95 C68.350625 94.38125 68.70125 93.7625 69.0625 93.125 C71.46382861 87.68198848 71.16096468 81.35400953 71.20532227 75.49438477 C71.21522186 74.67406265 71.22512146 73.85374054 71.23532104 73.00856018 C71.26669885 70.31953739 71.29159882 67.63049699 71.31640625 64.94140625 C71.33699631 63.0681057 71.3579933 61.19480958 71.37937927 59.32151794 C71.43438814 54.40776169 71.48389025 49.49396498 71.53222656 44.58013916 C71.58259693 39.55924917 71.63820165 34.5384174 71.69335938 29.51757812 C71.80068159 19.67843347 71.90169927 9.83923893 72 0 C81.9 0 91.8 0 102 0 C102.06797986 11.91843884 102.12293354 23.83674732 102.15543652 35.75533676 C102.1710422 41.29057818 102.19218676 46.8256792 102.22631836 52.36083984 C102.25909432 57.71008927 102.27689128 63.05920429 102.28463173 68.40854645 C102.29014265 70.44172529 102.3009035 72.47489741 102.31719017 74.50801849 C102.44472163 91.09938914 101.63908543 107.81973446 89.875 120.875 C85.29361244 125.05756141 79.628314 127.52323512 74 130 C72.76636719 130.54720703 72.76636719 130.54720703 71.5078125 131.10546875 C58.83981545 135.62411567 39.19906416 135.17706221 26.68359375 130.3203125 C13.6815068 123.92336142 7.01478352 116.80786307 1.9453125 103.2109375 C0.03492724 96.72194293 -0.14205749 90.36977945 -0.11352539 83.66821289 C-0.11367142 82.76010864 -0.11381744 81.85200439 -0.1139679 80.91638184 C-0.11327501 77.9351151 -0.10551199 74.95391198 -0.09765625 71.97265625 C-0.09578985 69.89757827 -0.094367 67.82249985 -0.09336853 65.74742126 C-0.08956083 60.30096203 -0.07974553 54.8545297 -0.06866455 49.40808105 C-0.0584128 43.84432336 -0.05386286 38.2805613 -0.04882812 32.71679688 C-0.03812163 21.81118423 -0.02053904 10.90559857 0 0 Z " fill="#030303" transform="translate(701,502)"/>
<path d="M0 0 C1.80404297 0.58007812 1.80404297 0.58007812 3.64453125 1.171875 C9.70734515 3.22878778 14.79762408 5.2986117 20 9 C18.39323547 14.45593671 15.94969106 19.3302147 13.375 24.375 C12.95476562 25.20644531 12.53453125 26.03789063 12.1015625 26.89453125 C11.07133925 28.93156359 10.03741179 30.96662189 9 33 C8.3090625 32.72285156 7.618125 32.44570313 6.90625 32.16015625 C3.77436002 30.90992598 0.64030274 29.66647362 -2.5 28.4375 C-4.15515625 27.78587891 -4.15515625 27.78587891 -5.84375 27.12109375 C-12.98658346 24.58397345 -20.38188003 23.47875801 -27.4375 26.75 C-30.52131715 28.31994328 -31.78056454 29.74612949 -33 33 C-33.15483439 36.50260082 -33.15483439 36.50260082 -32 40 C-27.91256059 43.90332052 -23.69989109 46.40261797 -18.625 48.8125 C-17.58714355 49.3233313 -17.58714355 49.3233313 -16.52832031 49.84448242 C-12.98268845 51.58645632 -9.41664409 53.27170796 -5.8203125 54.90625 C6.58746798 60.64418282 17.38799414 67.82376469 23.0703125 80.8359375 C26.06611917 91.0317501 24.16728686 101.40495063 20 111 C14.25810585 120.96767019 5.25684847 126.15417707 -5.1875 130.25 C-26.04406901 135.81175174 -48.58450009 131.63364646 -67 121 C-69.39471664 119.40086651 -71.69199699 117.72499183 -74 116 C-72.68071914 112.48283007 -71.12651609 109.34691482 -69.1796875 106.13671875 C-68.37724609 104.80737305 -68.37724609 104.80737305 -67.55859375 103.45117188 C-67.00300781 102.53916016 -66.44742188 101.62714844 -65.875 100.6875 C-65.03001953 99.29047852 -65.03001953 99.29047852 -64.16796875 97.86523438 C-62.7819554 95.57478858 -61.39254372 93.28647924 -60 91 C-56.54860906 92.34119559 -53.55565723 93.81286956 -50.4375 95.8125 C-40.58366269 101.74520974 -31.71836837 105.68060042 -20 104 C-15.56895806 102.58918912 -12.63713194 100.95569791 -10 97 C-9.57229528 94.89125815 -9.57229528 94.89125815 -9.5625 92.625 C-9.52253906 91.87476563 -9.48257813 91.12453125 -9.44140625 90.3515625 C-10.3053621 86.71448962 -12.13628134 85.37111493 -15 83 C-17.96013575 81.18511004 -21.02252093 79.61845825 -24.125 78.0625 C-25.83470208 77.1798166 -27.54433789 76.29700485 -29.25390625 75.4140625 C-31.94297259 74.04125952 -34.63742569 72.68240544 -37.33984375 71.3359375 C-47.87020363 65.92723042 -57.41178638 58.05652516 -61.8125 46.8125 C-64.66640811 37.15185702 -63.44929768 27.93992011 -59 19 C-52.61728221 8.38666235 -42.74587774 1.84015517 -31.25 -2.375 C-20.7256159 -4.466937 -10.10625915 -3.26091845 0 0 Z " fill="#020202" transform="translate(649,503)"/>
<path d="M0 0 C9.57 0 19.14 0 29 0 C29 42.9 29 85.8 29 130 C19.43 130 9.86 130 0 130 C0 87.1 0 44.2 0 0 Z " fill="#000000" transform="translate(318,503)"/>
<path d="M0 0 C6.34181795 4.48788187 9.90821099 10.32888941 11.75390625 17.83984375 C13.57631723 29.13228324 12.62578003 40.56780536 6.73828125 50.47265625 C2.56840851 56.0746065 -2.94464751 59.36734224 -9.80859375 60.55078125 C-18.21233956 61.30974023 -24.83433268 60.10277979 -31.55859375 54.86328125 C-35.10194556 51.61050043 -37.08274096 48.00037327 -38.80859375 43.55078125 C-39.164375 42.66648437 -39.52015625 41.7821875 -39.88671875 40.87109375 C-42.69208193 30.76703145 -42.08101135 18.39170683 -37.421875 9.0078125 C-33.67912153 3.30758991 -28.63193151 -0.96091345 -22.06640625 -3.0078125 C-14.02561917 -4.57980029 -7.17110709 -4.08626488 0 0 Z " fill="#050506" transform="translate(586.80859375,360.44921875)"/>
<path d="M0 0 C6.34181795 4.48788187 9.90821099 10.32888941 11.75390625 17.83984375 C13.57631723 29.13228324 12.62578003 40.56780536 6.73828125 50.47265625 C2.56840851 56.0746065 -2.94464751 59.36734224 -9.80859375 60.55078125 C-18.21233956 61.30974023 -24.83433268 60.10277979 -31.55859375 54.86328125 C-35.10194556 51.61050043 -37.08274096 48.00037327 -38.80859375 43.55078125 C-39.164375 42.66648437 -39.52015625 41.7821875 -39.88671875 40.87109375 C-42.69208193 30.76703145 -42.08101135 18.39170683 -37.421875 9.0078125 C-33.67912153 3.30758991 -28.63193151 -0.96091345 -22.06640625 -3.0078125 C-14.02561917 -4.57980029 -7.17110709 -4.08626488 0 0 Z " fill="#050506" transform="translate(173.80859375,360.44921875)"/>
<path d="M0 0 C4.76231216 3.31825621 7.54201123 5.95110917 10.06640625 11.265625 C10.5665625 12.296875 11.06671875 13.328125 11.58203125 14.390625 C15.47630124 23.46082345 15.01469197 34.97065806 11.72265625 44.19140625 C8.58488487 51.37311575 3.28339125 56.99058852 -3.93359375 60.140625 C-10.96745274 62.39471881 -17.75840385 62.27307995 -24.49609375 59.203125 C-29.10682944 56.58720839 -32.33861705 53.73757275 -35.18359375 49.265625 C-35.80234375 48.30849609 -35.80234375 48.30849609 -36.43359375 47.33203125 C-39.49435785 41.36991784 -39.59780366 35.27007037 -39.68359375 28.703125 C-39.70212402 27.8167334 -39.7206543 26.9303418 -39.73974609 26.01708984 C-39.65342193 16.89888824 -36.4580793 9.63283256 -30.21875 2.99609375 C-21.91709654 -4.0627018 -9.48826896 -5.34909123 0 0 Z " fill="#050505" transform="translate(685.18359375,359.734375)"/>
<path d="M0 0 C6.73622234 3.50973193 11.28980282 8.68206132 14.18359375 15.625 C16.80112203 25.2047244 17.04931755 39.15720902 12.453125 48.109375 C7.58858776 55.51444207 2.97499416 60.03292695 -5.86328125 62.11328125 C-13.89994157 63.3187803 -20.21595863 61.79018797 -26.86328125 57.11328125 C-32.62708734 52.02246193 -36.212228 46.2207725 -37.19555664 38.5065918 C-37.90437057 27.00928701 -38.52375292 15.45808495 -30.86328125 6.11328125 C-22.23693355 -2.37854251 -11.32694798 -4.29081871 0 0 Z " fill="#060506" transform="translate(423.86328125,358.88671875)"/>
<path d="M0 0 C35.80487805 0 35.80487805 0 44 8 C47.27633194 13.07158233 46.56463655 19.21247541 46 25 C44.32427886 30.52226285 40.72931929 32.9874884 36 36 C37.24743936 38.5221286 38.49787069 41.04270078 39.75 43.5625 C40.09804687 44.26697266 40.44609375 44.97144531 40.8046875 45.69726562 C42.52338316 49.15057079 44.28868697 52.52664205 46.265625 55.83984375 C48 59 48 59 48 62 C43.53079189 62.59677853 39.44821641 62.83968721 35 62 C31.10291883 58.46276719 29.60031823 53.4875921 27.66796875 48.69921875 C27.20003906 47.62285156 26.73210937 46.54648437 26.25 45.4375 C25.86328125 44.42558594 25.4765625 43.41367187 25.078125 42.37109375 C22.41886349 38.79263724 22.41886349 38.79263724 13 39 C13 46.59 13 54.18 13 62 C8.71 62 4.42 62 0 62 C0 41.54 0 21.08 0 0 Z " fill="#030303" transform="translate(204,358)"/>
<path d="M0 0 C35.2516129 0 35.2516129 0 42.15625 5.81640625 C42.5996875 6.39261719 43.043125 6.96882813 43.5 7.5625 C43.9640625 8.14128906 44.428125 8.72007812 44.90625 9.31640625 C48.10805462 14.24489837 47.50623531 20.37437104 47 26 C45.71647511 30.55467974 43.82274249 33.28944967 40.25 36.375 C31.27116292 40.86441854 22.83362333 40.16389372 13 40 C13 47.26 13 54.52 13 62 C8.71 62 4.42 62 0 62 C0 41.54 0 21.08 0 0 Z " fill="#020202" transform="translate(70,358)"/>
<path d="M0 0 C13.2 0 26.4 0 40 0 C40 3.3 40 6.6 40 10 C30.76 10 21.52 10 12 10 C12 15.28 12 20.56 12 26 C20.25 26 28.5 26 37 26 C37 29.3 37 32.6 37 36 C28.75 36 20.5 36 12 36 C12 44.58 12 53.16 12 62 C8.04 62 4.08 62 0 62 C0 41.54 0 21.08 0 0 Z " fill="#010101" transform="translate(717,358)"/>
<path d="M0 0 C13.2 0 26.4 0 40 0 C40 3.3 40 6.6 40 10 C30.76 10 21.52 10 12 10 C12 15.28 12 20.56 12 26 C20.25 26 28.5 26 37 26 C37 29.3 37 32.6 37 36 C28.75 36 20.5 36 12 36 C12 44.58 12 53.16 12 62 C8.04 62 4.08 62 0 62 C0 41.54 0 21.08 0 0 Z " fill="#010101" transform="translate(332,358)"/>
<path d="M0 0 C16.5 0 33 0 50 0 C50 3.3 50 6.6 50 10 C43.73 10 37.46 10 31 10 C31 27.16 31 44.32 31 62 C27.04 62 23.08 62 19 62 C19 44.84 19 27.68 19 10 C12.73 10 6.46 10 0 10 C0 6.7 0 3.4 0 0 Z " fill="#000000" transform="translate(265,358)"/>
<path d="M0 0 C4.29 0 8.58 0 13 0 C13 17.16 13 34.32 13 52 C21.91 52 30.82 52 40 52 C40 55.3 40 58.6 40 62 C26.8 62 13.6 62 0 62 C0 41.54 0 21.08 0 0 Z " fill="#040404" transform="translate(457,358)"/>
<path d="M0 0 C4.39426548 2.55666355 6.96209908 5.45968463 8.53125 10.36328125 C10.07308645 19.03611126 10.41541474 29.19943396 6 37 C3.39288865 40.05222793 1.56537908 41.7165259 -2.4375 42.44140625 C-6.54969961 42.63110593 -9.27327176 42.38655757 -12.9375 40.4375 C-18.14320313 34.28530539 -18.497842 28.25668957 -18.4375 20.5 C-18.45748047 19.58863281 -18.47746094 18.67726563 -18.49804688 17.73828125 C-18.49363299 11.62063537 -17.63840538 7.96204319 -14 3 C-9.89447265 -1.02308705 -5.45689223 -0.89655101 0 0 Z " fill="#E4DDE8" transform="translate(677,368)"/>
<path d="M0 0 C5.06902765 4.9199386 6.32440672 10.4328258 6.59960938 17.31518555 C6.69877781 26.09254574 5.74370064 32.69877276 0 39.625 C-4.2938171 41.77190855 -8.17453449 41.93754547 -12.875 41.0625 C-17.60939918 37.83907928 -19.37012358 33.44133313 -20.875 28.0625 C-21.29018584 25.04781729 -21.34103003 22.10224465 -21.3125 19.0625 C-21.33248047 18.30710937 -21.35246094 17.55171875 -21.37304688 16.7734375 C-21.36739065 10.18959304 -19.60517604 4.84211584 -14.93359375 0.0859375 C-10.28939659 -2.2229423 -4.80537414 -1.56696983 0 0 Z " fill="#E5DEE9" transform="translate(579.875,368.9375)"/>
<path d="M0 0 C5.06902765 4.9199386 6.32440672 10.4328258 6.59960938 17.31518555 C6.69877781 26.09254574 5.74370064 32.69877276 0 39.625 C-4.2938171 41.77190855 -8.17453449 41.93754547 -12.875 41.0625 C-17.60939918 37.83907928 -19.37012358 33.44133313 -20.875 28.0625 C-21.29018584 25.04781729 -21.34103003 22.10224465 -21.3125 19.0625 C-21.33248047 18.30710937 -21.35246094 17.55171875 -21.37304688 16.7734375 C-21.36739065 10.18959304 -19.60517604 4.84211584 -14.93359375 0.0859375 C-10.28939659 -2.2229423 -4.80537414 -1.56696983 0 0 Z " fill="#E5DEE9" transform="translate(166.875,368.9375)"/>
<path d="M0 0 C4.42872257 2.44993163 6.15715884 5.35953089 8 10 C8.48043077 13.63163155 8.50979766 17.21557319 8.5 20.875 C8.52835937 21.83019531 8.55671875 22.78539062 8.5859375 23.76953125 C8.60400953 30.35678592 7.41716493 34.98579316 3 40 C-1.2552036 42.8368024 -5.00607395 42.63123225 -10 42 C-14.05137379 39.84501394 -15.64731479 37.2973527 -17.37817383 33.09790039 C-18.55828304 29.11647972 -18.43035759 25.12106498 -18.375 21 C-18.38660156 20.13632812 -18.39820313 19.27265625 -18.41015625 18.3828125 C-18.37975516 11.7148408 -17.35883324 6.78771201 -12.9375 1.5625 C-8.63192722 -0.72769829 -4.77524639 -0.77096235 0 0 Z " fill="#E6DFEA" transform="translate(418,368)"/>
<path d="M0 0 C4.29 0 8.58 0 13 0 C13 20.46 13 40.92 13 62 C8.71 62 4.42 62 0 62 C0 41.54 0 21.08 0 0 Z " fill="#060606" transform="translate(514,358)"/>
<path d="M0 0 C2.74224352 2.74224352 3.69590288 5.99864258 5.0390625 9.5625 C5.32478119 10.30959229 5.61049988 11.05668457 5.90487671 11.82641602 C6.50752116 13.40575724 7.10752247 14.98610919 7.70507812 16.56738281 C8.62228208 18.99281279 9.5487418 21.41455176 10.4765625 23.8359375 C11.06044837 25.36958142 11.64379994 26.90342889 12.2265625 28.4375 C12.50464752 29.16461182 12.78273254 29.89172363 13.06924438 30.64086914 C15 35.76871336 15 35.76871336 15 38 C5.43 38 -4.14 38 -14 38 C-13.1346938 33.67346902 -11.91437903 29.87189588 -10.3125 25.80078125 C-10.04993408 25.12452194 -9.78736816 24.44826263 -9.5168457 23.75151062 C-8.6817024 21.6036691 -7.8408175 19.45812563 -7 17.3125 C-6.43454306 15.85886113 -5.86943522 14.40508642 -5.3046875 12.95117188 C-4.76593871 11.56758614 -4.22688677 10.1841184 -3.6875 8.80078125 C-3.43331299 8.14870193 -3.17912598 7.49662262 -2.91723633 6.82478333 C-2.00969216 4.51000181 -1.1125758 2.22515161 0 0 Z " fill="#E1DAE4" transform="translate(434,543)"/>
<path d="M0 0 C3.5578125 -0.0928125 3.5578125 -0.0928125 7.1875 -0.1875 C8.29387817 -0.22846802 8.29387817 -0.22846802 9.42260742 -0.27026367 C13.83935173 -0.32573392 16.52119467 0.27164994 20 3 C22.66773607 7.0016041 22.71478813 10.29431148 22 15 C20.12379387 17.50160818 18.76108697 18.61945652 16 20 C13.28024285 20.07187519 10.59325368 20.0927862 7.875 20.0625 C5.27625 20.041875 2.6775 20.02125 0 20 C0 13.4 0 6.8 0 0 Z " fill="#DCD5DF" transform="translate(82,368)"/>
<path d="M0 0 C13.75354564 -0.27784941 13.75354564 -0.27784941 18 2 C20.67089167 6.00633751 20.70693873 9.28991428 20 14 C17.80168636 17.03215675 16.55036806 17.81654398 13 19 C8.66328697 19.13501597 4.33988266 19.04296914 0 19 C0 12.73 0 6.46 0 0 Z " fill="#E4DDE8" transform="translate(217,368)"/>
</svg>
